<mxfile host="app.diagrams.net" modified="2021-06-21T00:46:00.113Z" agent="5.0 (Windows NT 10.0; Win64; x64) AppleWebKit/537.36 (KHTML, like Gecko) Chrome/91.0.4472.77 Safari/537.36 OPR/77.0.4054.60" etag="XWtwF5t1vmq67mCgNA67" version="14.6.13" type="github">
  <diagram id="jTLe9S580Fmypu5tS3AX" name="Страница 1">
    <mxGraphModel dx="1174" dy="645" grid="1" gridSize="10" guides="1" tooltips="1" connect="1" arrows="1" fold="1" page="1" pageScale="1" pageWidth="1169" pageHeight="827" math="0" shadow="0">
      <root>
        <mxCell id="0" />
        <mxCell id="1" parent="0" />
        <mxCell id="T1iM9zcVQcqPaShfsM0y-30" style="edgeStyle=orthogonalEdgeStyle;rounded=0;orthogonalLoop=1;jettySize=auto;html=1;exitX=1;exitY=0.5;exitDx=0;exitDy=0;exitPerimeter=0;entryX=0;entryY=0.5;entryDx=0;entryDy=0;" edge="1" parent="1" source="T1iM9zcVQcqPaShfsM0y-2" target="T1iM9zcVQcqPaShfsM0y-29">
          <mxGeometry relative="1" as="geometry" />
        </mxCell>
        <mxCell id="T1iM9zcVQcqPaShfsM0y-2" value="" style="shape=singleArrow;whiteSpace=wrap;html=1;arrowWidth=0.38000030517578126;arrowSize=0.395999755859375;" vertex="1" parent="1">
          <mxGeometry x="50" y="224" width="80" height="40" as="geometry" />
        </mxCell>
        <mxCell id="T1iM9zcVQcqPaShfsM0y-9" style="edgeStyle=orthogonalEdgeStyle;rounded=0;orthogonalLoop=1;jettySize=auto;html=1;exitX=1;exitY=0.5;exitDx=0;exitDy=0;entryX=0;entryY=0.5;entryDx=0;entryDy=0;" edge="1" parent="1" source="T1iM9zcVQcqPaShfsM0y-27" target="T1iM9zcVQcqPaShfsM0y-8">
          <mxGeometry relative="1" as="geometry">
            <mxPoint x="250" y="110" as="sourcePoint" />
          </mxGeometry>
        </mxCell>
        <mxCell id="T1iM9zcVQcqPaShfsM0y-28" style="edgeStyle=orthogonalEdgeStyle;rounded=0;orthogonalLoop=1;jettySize=auto;html=1;exitX=1;exitY=0.5;exitDx=0;exitDy=0;exitPerimeter=0;entryX=0;entryY=0.5;entryDx=0;entryDy=0;" edge="1" parent="1" source="T1iM9zcVQcqPaShfsM0y-4" target="T1iM9zcVQcqPaShfsM0y-27">
          <mxGeometry relative="1" as="geometry" />
        </mxCell>
        <mxCell id="T1iM9zcVQcqPaShfsM0y-4" value="" style="shape=singleArrow;whiteSpace=wrap;html=1;arrowWidth=0.38000030517578126;arrowSize=0.395999755859375;" vertex="1" parent="1">
          <mxGeometry x="50" y="90" width="80" height="40" as="geometry" />
        </mxCell>
        <mxCell id="T1iM9zcVQcqPaShfsM0y-11" style="edgeStyle=orthogonalEdgeStyle;rounded=0;orthogonalLoop=1;jettySize=auto;html=1;exitX=0.5;exitY=1;exitDx=0;exitDy=0;entryX=0.5;entryY=0;entryDx=0;entryDy=0;" edge="1" parent="1" source="T1iM9zcVQcqPaShfsM0y-5" target="T1iM9zcVQcqPaShfsM0y-8">
          <mxGeometry relative="1" as="geometry" />
        </mxCell>
        <mxCell id="T1iM9zcVQcqPaShfsM0y-5" value="&lt;font face=&quot;Times New Roman&quot;&gt;&lt;span style=&quot;font-size: 15px&quot;&gt;T&lt;/span&gt;&lt;span style=&quot;font-size: 12.5px&quot;&gt;ч&lt;/span&gt;&lt;span style=&quot;font-size: 15px&quot;&gt;&amp;nbsp;= 1460°С&lt;/span&gt;&lt;/font&gt;" style="rounded=0;whiteSpace=wrap;html=1;" vertex="1" parent="1">
          <mxGeometry x="355" y="30" width="90" height="30" as="geometry" />
        </mxCell>
        <mxCell id="T1iM9zcVQcqPaShfsM0y-10" style="edgeStyle=orthogonalEdgeStyle;rounded=0;orthogonalLoop=1;jettySize=auto;html=1;exitX=0.5;exitY=1;exitDx=0;exitDy=0;" edge="1" parent="1" source="T1iM9zcVQcqPaShfsM0y-6">
          <mxGeometry relative="1" as="geometry">
            <mxPoint x="295" y="110" as="targetPoint" />
          </mxGeometry>
        </mxCell>
        <mxCell id="T1iM9zcVQcqPaShfsM0y-6" value="слитки серого чугуна FC-200" style="rounded=0;whiteSpace=wrap;html=1;" vertex="1" parent="1">
          <mxGeometry x="250" y="30" width="90" height="30" as="geometry" />
        </mxCell>
        <mxCell id="T1iM9zcVQcqPaShfsM0y-16" style="edgeStyle=orthogonalEdgeStyle;rounded=0;orthogonalLoop=1;jettySize=auto;html=1;exitX=1;exitY=0.5;exitDx=0;exitDy=0;entryX=0;entryY=0.5;entryDx=0;entryDy=0;" edge="1" parent="1" source="T1iM9zcVQcqPaShfsM0y-7" target="T1iM9zcVQcqPaShfsM0y-15">
          <mxGeometry relative="1" as="geometry" />
        </mxCell>
        <mxCell id="T1iM9zcVQcqPaShfsM0y-7" value="Литье в песчано-глинистые формы" style="rounded=0;whiteSpace=wrap;html=1;" vertex="1" parent="1">
          <mxGeometry x="470" y="80" width="110" height="60" as="geometry" />
        </mxCell>
        <mxCell id="T1iM9zcVQcqPaShfsM0y-12" style="edgeStyle=orthogonalEdgeStyle;rounded=0;orthogonalLoop=1;jettySize=auto;html=1;exitX=1;exitY=0.5;exitDx=0;exitDy=0;entryX=0;entryY=0.5;entryDx=0;entryDy=0;" edge="1" parent="1" source="T1iM9zcVQcqPaShfsM0y-8" target="T1iM9zcVQcqPaShfsM0y-7">
          <mxGeometry relative="1" as="geometry" />
        </mxCell>
        <mxCell id="T1iM9zcVQcqPaShfsM0y-8" value="Плавка чугуна в индукционных печах" style="rounded=0;whiteSpace=wrap;html=1;" vertex="1" parent="1">
          <mxGeometry x="340" y="80" width="110" height="60" as="geometry" />
        </mxCell>
        <mxCell id="T1iM9zcVQcqPaShfsM0y-86" style="edgeStyle=orthogonalEdgeStyle;rounded=0;orthogonalLoop=1;jettySize=auto;html=1;exitX=0.5;exitY=1;exitDx=0;exitDy=0;entryX=0.5;entryY=0;entryDx=0;entryDy=0;" edge="1" parent="1" source="T1iM9zcVQcqPaShfsM0y-13" target="T1iM9zcVQcqPaShfsM0y-7">
          <mxGeometry relative="1" as="geometry" />
        </mxCell>
        <mxCell id="T1iM9zcVQcqPaShfsM0y-13" value="песчано-глинистая смесь" style="rounded=0;whiteSpace=wrap;html=1;" vertex="1" parent="1">
          <mxGeometry x="455" y="35" width="150" height="20" as="geometry" />
        </mxCell>
        <mxCell id="T1iM9zcVQcqPaShfsM0y-102" style="edgeStyle=orthogonalEdgeStyle;rounded=0;orthogonalLoop=1;jettySize=auto;html=1;exitX=1;exitY=0.5;exitDx=0;exitDy=0;entryX=0;entryY=0.5;entryDx=0;entryDy=0;" edge="1" parent="1" source="T1iM9zcVQcqPaShfsM0y-15" target="T1iM9zcVQcqPaShfsM0y-21">
          <mxGeometry relative="1" as="geometry" />
        </mxCell>
        <mxCell id="T1iM9zcVQcqPaShfsM0y-15" value="выбивка отливок" style="rounded=0;whiteSpace=wrap;html=1;" vertex="1" parent="1">
          <mxGeometry x="604.5" y="80" width="100" height="60" as="geometry" />
        </mxCell>
        <mxCell id="T1iM9zcVQcqPaShfsM0y-18" style="edgeStyle=orthogonalEdgeStyle;rounded=0;orthogonalLoop=1;jettySize=auto;html=1;exitX=0.5;exitY=1;exitDx=0;exitDy=0;entryX=0.5;entryY=0;entryDx=0;entryDy=0;" edge="1" parent="1" source="T1iM9zcVQcqPaShfsM0y-17" target="T1iM9zcVQcqPaShfsM0y-15">
          <mxGeometry relative="1" as="geometry" />
        </mxCell>
        <mxCell id="T1iM9zcVQcqPaShfsM0y-17" value="&lt;font face=&quot;Times New Roman&quot;&gt;&lt;span style=&quot;font-size: 15px&quot;&gt;T&lt;/span&gt;&lt;span style=&quot;font-size: 12.5px&quot;&gt;ч&lt;/span&gt;&lt;span style=&quot;font-size: 15px&quot;&gt;&amp;nbsp;= 450°С&lt;/span&gt;&lt;/font&gt;" style="rounded=0;whiteSpace=wrap;html=1;" vertex="1" parent="1">
          <mxGeometry x="614.5" y="30" width="90" height="30" as="geometry" />
        </mxCell>
        <mxCell id="T1iM9zcVQcqPaShfsM0y-104" style="edgeStyle=orthogonalEdgeStyle;rounded=0;orthogonalLoop=1;jettySize=auto;html=1;exitX=0.5;exitY=1;exitDx=0;exitDy=0;entryX=0.5;entryY=0;entryDx=0;entryDy=0;" edge="1" parent="1" source="T1iM9zcVQcqPaShfsM0y-21" target="T1iM9zcVQcqPaShfsM0y-99">
          <mxGeometry relative="1" as="geometry" />
        </mxCell>
        <mxCell id="T1iM9zcVQcqPaShfsM0y-21" value="контроль плотности отливок гидравлическими испытаниями" style="rounded=0;whiteSpace=wrap;html=1;" vertex="1" parent="1">
          <mxGeometry x="730" y="80" width="130" height="60" as="geometry" />
        </mxCell>
        <mxCell id="T1iM9zcVQcqPaShfsM0y-24" style="edgeStyle=orthogonalEdgeStyle;rounded=0;orthogonalLoop=1;jettySize=auto;html=1;exitX=0.5;exitY=1;exitDx=0;exitDy=0;entryX=0.5;entryY=0;entryDx=0;entryDy=0;" edge="1" parent="1" source="T1iM9zcVQcqPaShfsM0y-23" target="T1iM9zcVQcqPaShfsM0y-21">
          <mxGeometry relative="1" as="geometry" />
        </mxCell>
        <mxCell id="T1iM9zcVQcqPaShfsM0y-23" value="&lt;font face=&quot;Times New Roman&quot;&gt;&lt;span style=&quot;font-size: 15px&quot;&gt;P&lt;/span&gt;&lt;span style=&quot;font-size: 12.5px&quot;&gt;в&lt;/span&gt;&lt;span style=&quot;font-size: 15px&quot;&gt;&amp;nbsp;= 200 МПа&lt;/span&gt;&lt;/font&gt;" style="rounded=0;whiteSpace=wrap;html=1;" vertex="1" parent="1">
          <mxGeometry x="740" y="30" width="100" height="30" as="geometry" />
        </mxCell>
        <mxCell id="T1iM9zcVQcqPaShfsM0y-27" value="изготовление металлических комплектующих" style="rounded=0;whiteSpace=wrap;html=1;" vertex="1" parent="1">
          <mxGeometry x="150" y="80" width="110" height="60" as="geometry" />
        </mxCell>
        <mxCell id="T1iM9zcVQcqPaShfsM0y-34" style="edgeStyle=orthogonalEdgeStyle;rounded=0;orthogonalLoop=1;jettySize=auto;html=1;exitX=1;exitY=0.5;exitDx=0;exitDy=0;entryX=0;entryY=0.5;entryDx=0;entryDy=0;" edge="1" parent="1" source="T1iM9zcVQcqPaShfsM0y-29" target="T1iM9zcVQcqPaShfsM0y-31">
          <mxGeometry relative="1" as="geometry" />
        </mxCell>
        <mxCell id="T1iM9zcVQcqPaShfsM0y-29" value="&lt;font style=&quot;font-size: 12px&quot;&gt;Изготовление лёгких металлических составляющих&lt;/font&gt;" style="rounded=0;whiteSpace=wrap;html=1;" vertex="1" parent="1">
          <mxGeometry x="170" y="214" width="110" height="60" as="geometry" />
        </mxCell>
        <mxCell id="T1iM9zcVQcqPaShfsM0y-36" style="edgeStyle=orthogonalEdgeStyle;rounded=0;orthogonalLoop=1;jettySize=auto;html=1;exitX=1;exitY=0.5;exitDx=0;exitDy=0;entryX=0;entryY=0.5;entryDx=0;entryDy=0;" edge="1" parent="1" source="T1iM9zcVQcqPaShfsM0y-31" target="T1iM9zcVQcqPaShfsM0y-35">
          <mxGeometry relative="1" as="geometry" />
        </mxCell>
        <mxCell id="T1iM9zcVQcqPaShfsM0y-31" value="Плавка алюминия в индукционных печах" style="rounded=0;whiteSpace=wrap;html=1;" vertex="1" parent="1">
          <mxGeometry x="360" y="214" width="110" height="60" as="geometry" />
        </mxCell>
        <mxCell id="T1iM9zcVQcqPaShfsM0y-38" style="edgeStyle=orthogonalEdgeStyle;rounded=0;orthogonalLoop=1;jettySize=auto;html=1;exitX=0.5;exitY=1;exitDx=0;exitDy=0;entryX=0.5;entryY=0;entryDx=0;entryDy=0;" edge="1" parent="1" source="T1iM9zcVQcqPaShfsM0y-32" target="T1iM9zcVQcqPaShfsM0y-31">
          <mxGeometry relative="1" as="geometry" />
        </mxCell>
        <mxCell id="T1iM9zcVQcqPaShfsM0y-32" value="&lt;font face=&quot;Times New Roman&quot;&gt;&lt;span style=&quot;font-size: 15px&quot;&gt;T&lt;/span&gt;&lt;span style=&quot;font-size: 12.5px&quot;&gt;а&lt;/span&gt;&lt;span style=&quot;font-size: 15px&quot;&gt;&amp;nbsp;= 600°С&lt;/span&gt;&lt;/font&gt;" style="rounded=0;whiteSpace=wrap;html=1;" vertex="1" parent="1">
          <mxGeometry x="370" y="165" width="90" height="30" as="geometry" />
        </mxCell>
        <mxCell id="T1iM9zcVQcqPaShfsM0y-50" style="edgeStyle=orthogonalEdgeStyle;rounded=0;orthogonalLoop=1;jettySize=auto;html=1;exitX=1;exitY=0.5;exitDx=0;exitDy=0;entryX=0;entryY=0.5;entryDx=0;entryDy=0;" edge="1" parent="1" source="T1iM9zcVQcqPaShfsM0y-35" target="T1iM9zcVQcqPaShfsM0y-46">
          <mxGeometry relative="1" as="geometry" />
        </mxCell>
        <mxCell id="T1iM9zcVQcqPaShfsM0y-35" value="Литье под давлением" style="rounded=0;whiteSpace=wrap;html=1;" vertex="1" parent="1">
          <mxGeometry x="530" y="214" width="110" height="60" as="geometry" />
        </mxCell>
        <mxCell id="T1iM9zcVQcqPaShfsM0y-40" style="edgeStyle=orthogonalEdgeStyle;rounded=0;orthogonalLoop=1;jettySize=auto;html=1;exitX=0.5;exitY=0;exitDx=0;exitDy=0;entryX=0.5;entryY=1;entryDx=0;entryDy=0;" edge="1" parent="1" source="T1iM9zcVQcqPaShfsM0y-39" target="T1iM9zcVQcqPaShfsM0y-35">
          <mxGeometry relative="1" as="geometry" />
        </mxCell>
        <mxCell id="T1iM9zcVQcqPaShfsM0y-39" value="форма из стали" style="rounded=0;whiteSpace=wrap;html=1;" vertex="1" parent="1">
          <mxGeometry x="564.5" y="295" width="100" height="20" as="geometry" />
        </mxCell>
        <mxCell id="T1iM9zcVQcqPaShfsM0y-44" style="edgeStyle=orthogonalEdgeStyle;rounded=0;orthogonalLoop=1;jettySize=auto;html=1;exitX=0.5;exitY=1;exitDx=0;exitDy=0;entryX=0.5;entryY=0;entryDx=0;entryDy=0;" edge="1" parent="1" source="T1iM9zcVQcqPaShfsM0y-41" target="T1iM9zcVQcqPaShfsM0y-35">
          <mxGeometry relative="1" as="geometry" />
        </mxCell>
        <mxCell id="T1iM9zcVQcqPaShfsM0y-41" value="&lt;font face=&quot;Times New Roman&quot;&gt;&lt;span style=&quot;font-size: 15px&quot;&gt;P &amp;lt;= 700 МПа&lt;/span&gt;&lt;/font&gt;" style="rounded=0;whiteSpace=wrap;html=1;" vertex="1" parent="1">
          <mxGeometry x="525" y="165" width="100" height="30" as="geometry" />
        </mxCell>
        <mxCell id="T1iM9zcVQcqPaShfsM0y-43" style="edgeStyle=orthogonalEdgeStyle;rounded=0;orthogonalLoop=1;jettySize=auto;html=1;exitX=0.5;exitY=1;exitDx=0;exitDy=0;" edge="1" parent="1" source="T1iM9zcVQcqPaShfsM0y-42">
          <mxGeometry relative="1" as="geometry">
            <mxPoint x="315" y="245" as="targetPoint" />
          </mxGeometry>
        </mxCell>
        <mxCell id="T1iM9zcVQcqPaShfsM0y-42" value="слитки алюминия" style="rounded=0;whiteSpace=wrap;html=1;" vertex="1" parent="1">
          <mxGeometry x="270" y="165" width="90" height="30" as="geometry" />
        </mxCell>
        <mxCell id="T1iM9zcVQcqPaShfsM0y-46" value="извлечение отливок" style="rounded=0;whiteSpace=wrap;html=1;" vertex="1" parent="1">
          <mxGeometry x="664.5" y="214" width="100" height="60" as="geometry" />
        </mxCell>
        <mxCell id="T1iM9zcVQcqPaShfsM0y-52" style="edgeStyle=orthogonalEdgeStyle;rounded=0;orthogonalLoop=1;jettySize=auto;html=1;exitX=0.5;exitY=0;exitDx=0;exitDy=0;" edge="1" parent="1" source="T1iM9zcVQcqPaShfsM0y-51">
          <mxGeometry relative="1" as="geometry">
            <mxPoint x="413" y="275" as="targetPoint" />
          </mxGeometry>
        </mxCell>
        <mxCell id="T1iM9zcVQcqPaShfsM0y-51" value="флюс" style="rounded=0;whiteSpace=wrap;html=1;" vertex="1" parent="1">
          <mxGeometry x="360" y="295" width="85" height="20" as="geometry" />
        </mxCell>
        <mxCell id="T1iM9zcVQcqPaShfsM0y-56" style="edgeStyle=orthogonalEdgeStyle;rounded=0;orthogonalLoop=1;jettySize=auto;html=1;exitX=0.25;exitY=0;exitDx=0;exitDy=0;" edge="1" parent="1" source="T1iM9zcVQcqPaShfsM0y-55">
          <mxGeometry relative="1" as="geometry">
            <mxPoint x="500" y="245" as="targetPoint" />
          </mxGeometry>
        </mxCell>
        <mxCell id="T1iM9zcVQcqPaShfsM0y-55" value="рафинирование хлором" style="rounded=0;whiteSpace=wrap;html=1;" vertex="1" parent="1">
          <mxGeometry x="460" y="290" width="100" height="30" as="geometry" />
        </mxCell>
        <mxCell id="T1iM9zcVQcqPaShfsM0y-59" style="edgeStyle=orthogonalEdgeStyle;rounded=0;orthogonalLoop=1;jettySize=auto;html=1;exitX=1;exitY=0.5;exitDx=0;exitDy=0;exitPerimeter=0;entryX=0;entryY=0.5;entryDx=0;entryDy=0;" edge="1" parent="1" source="T1iM9zcVQcqPaShfsM0y-60" target="T1iM9zcVQcqPaShfsM0y-62">
          <mxGeometry relative="1" as="geometry" />
        </mxCell>
        <mxCell id="T1iM9zcVQcqPaShfsM0y-60" value="" style="shape=singleArrow;whiteSpace=wrap;html=1;arrowWidth=0.38000030517578126;arrowSize=0.395999755859375;" vertex="1" parent="1">
          <mxGeometry x="50" y="414" width="80" height="40" as="geometry" />
        </mxCell>
        <mxCell id="T1iM9zcVQcqPaShfsM0y-61" style="edgeStyle=orthogonalEdgeStyle;rounded=0;orthogonalLoop=1;jettySize=auto;html=1;exitX=1;exitY=0.5;exitDx=0;exitDy=0;entryX=0;entryY=0.5;entryDx=0;entryDy=0;" edge="1" parent="1" source="T1iM9zcVQcqPaShfsM0y-62" target="T1iM9zcVQcqPaShfsM0y-64">
          <mxGeometry relative="1" as="geometry" />
        </mxCell>
        <mxCell id="T1iM9zcVQcqPaShfsM0y-62" value="&lt;font style=&quot;font-size: 12px&quot;&gt;получение вала&lt;/font&gt;" style="rounded=0;whiteSpace=wrap;html=1;" vertex="1" parent="1">
          <mxGeometry x="170" y="404" width="110" height="60" as="geometry" />
        </mxCell>
        <mxCell id="T1iM9zcVQcqPaShfsM0y-105" style="edgeStyle=orthogonalEdgeStyle;rounded=0;orthogonalLoop=1;jettySize=auto;html=1;exitX=1;exitY=0.5;exitDx=0;exitDy=0;" edge="1" parent="1" source="T1iM9zcVQcqPaShfsM0y-64" target="T1iM9zcVQcqPaShfsM0y-99">
          <mxGeometry relative="1" as="geometry" />
        </mxCell>
        <mxCell id="T1iM9zcVQcqPaShfsM0y-64" value="получение заготовки из металлопроката" style="rounded=0;whiteSpace=wrap;html=1;" vertex="1" parent="1">
          <mxGeometry x="360" y="404" width="120" height="60" as="geometry" />
        </mxCell>
        <mxCell id="T1iM9zcVQcqPaShfsM0y-73" style="edgeStyle=orthogonalEdgeStyle;rounded=0;orthogonalLoop=1;jettySize=auto;html=1;exitX=0.5;exitY=1;exitDx=0;exitDy=0;" edge="1" parent="1" source="T1iM9zcVQcqPaShfsM0y-74">
          <mxGeometry relative="1" as="geometry">
            <mxPoint x="315" y="435" as="targetPoint" />
          </mxGeometry>
        </mxCell>
        <mxCell id="T1iM9zcVQcqPaShfsM0y-74" value="заготовка из&amp;nbsp;углеродистой стали SAE/AISI 1040/45" style="rounded=0;whiteSpace=wrap;html=1;" vertex="1" parent="1">
          <mxGeometry x="230" y="340" width="130" height="45" as="geometry" />
        </mxCell>
        <mxCell id="T1iM9zcVQcqPaShfsM0y-88" style="edgeStyle=orthogonalEdgeStyle;rounded=0;orthogonalLoop=1;jettySize=auto;html=1;exitX=1;exitY=0.5;exitDx=0;exitDy=0;exitPerimeter=0;entryX=0;entryY=0.5;entryDx=0;entryDy=0;" edge="1" parent="1" source="T1iM9zcVQcqPaShfsM0y-89" target="T1iM9zcVQcqPaShfsM0y-91">
          <mxGeometry relative="1" as="geometry" />
        </mxCell>
        <mxCell id="T1iM9zcVQcqPaShfsM0y-89" value="" style="shape=singleArrow;whiteSpace=wrap;html=1;arrowWidth=0.38000030517578126;arrowSize=0.395999755859375;" vertex="1" parent="1">
          <mxGeometry x="50" y="554" width="80" height="40" as="geometry" />
        </mxCell>
        <mxCell id="T1iM9zcVQcqPaShfsM0y-90" style="edgeStyle=orthogonalEdgeStyle;rounded=0;orthogonalLoop=1;jettySize=auto;html=1;exitX=1;exitY=0.5;exitDx=0;exitDy=0;entryX=0;entryY=0.5;entryDx=0;entryDy=0;" edge="1" parent="1" source="T1iM9zcVQcqPaShfsM0y-91" target="T1iM9zcVQcqPaShfsM0y-93">
          <mxGeometry relative="1" as="geometry" />
        </mxCell>
        <mxCell id="T1iM9zcVQcqPaShfsM0y-91" value="изготовление листов статора и ротора" style="rounded=0;whiteSpace=wrap;html=1;" vertex="1" parent="1">
          <mxGeometry x="170" y="544" width="110" height="60" as="geometry" />
        </mxCell>
        <mxCell id="T1iM9zcVQcqPaShfsM0y-109" style="edgeStyle=orthogonalEdgeStyle;rounded=0;orthogonalLoop=1;jettySize=auto;html=1;exitX=1;exitY=0.5;exitDx=0;exitDy=0;entryX=0;entryY=0.5;entryDx=0;entryDy=0;" edge="1" parent="1" source="T1iM9zcVQcqPaShfsM0y-93" target="T1iM9zcVQcqPaShfsM0y-108">
          <mxGeometry relative="1" as="geometry" />
        </mxCell>
        <mxCell id="T1iM9zcVQcqPaShfsM0y-115" style="edgeStyle=orthogonalEdgeStyle;rounded=0;orthogonalLoop=1;jettySize=auto;html=1;exitX=1;exitY=0.5;exitDx=0;exitDy=0;entryX=0;entryY=0.5;entryDx=0;entryDy=0;" edge="1" parent="1" source="T1iM9zcVQcqPaShfsM0y-93" target="T1iM9zcVQcqPaShfsM0y-114">
          <mxGeometry relative="1" as="geometry" />
        </mxCell>
        <mxCell id="T1iM9zcVQcqPaShfsM0y-93" value="штамповка" style="rounded=0;whiteSpace=wrap;html=1;" vertex="1" parent="1">
          <mxGeometry x="360" y="544" width="120" height="60" as="geometry" />
        </mxCell>
        <mxCell id="T1iM9zcVQcqPaShfsM0y-94" style="edgeStyle=orthogonalEdgeStyle;rounded=0;orthogonalLoop=1;jettySize=auto;html=1;exitX=0.5;exitY=1;exitDx=0;exitDy=0;" edge="1" parent="1" source="T1iM9zcVQcqPaShfsM0y-95">
          <mxGeometry relative="1" as="geometry">
            <mxPoint x="314.9999999999998" y="575" as="targetPoint" />
          </mxGeometry>
        </mxCell>
        <mxCell id="T1iM9zcVQcqPaShfsM0y-95" value="электротехническая сталь толщиной до 1 мм" style="rounded=0;whiteSpace=wrap;html=1;" vertex="1" parent="1">
          <mxGeometry x="230" y="480" width="130" height="45" as="geometry" />
        </mxCell>
        <mxCell id="T1iM9zcVQcqPaShfsM0y-98" style="edgeStyle=orthogonalEdgeStyle;rounded=0;orthogonalLoop=1;jettySize=auto;html=1;exitX=0.5;exitY=1;exitDx=0;exitDy=0;entryX=0.5;entryY=0;entryDx=0;entryDy=0;" edge="1" parent="1" source="T1iM9zcVQcqPaShfsM0y-97" target="T1iM9zcVQcqPaShfsM0y-93">
          <mxGeometry relative="1" as="geometry" />
        </mxCell>
        <mxCell id="T1iM9zcVQcqPaShfsM0y-97" value="V = 30 ходов/мин&lt;br&gt;F = 66 т" style="rounded=0;whiteSpace=wrap;html=1;" vertex="1" parent="1">
          <mxGeometry x="370" y="480" width="130" height="45" as="geometry" />
        </mxCell>
        <mxCell id="T1iM9zcVQcqPaShfsM0y-124" style="edgeStyle=orthogonalEdgeStyle;rounded=0;orthogonalLoop=1;jettySize=auto;html=1;exitX=1;exitY=0.5;exitDx=0;exitDy=0;" edge="1" parent="1" source="T1iM9zcVQcqPaShfsM0y-99" target="T1iM9zcVQcqPaShfsM0y-122">
          <mxGeometry relative="1" as="geometry" />
        </mxCell>
        <mxCell id="T1iM9zcVQcqPaShfsM0y-99" value="механическая обработка на станках с ЧПУ" style="rounded=0;whiteSpace=wrap;html=1;" vertex="1" parent="1">
          <mxGeometry x="745" y="355" width="100" height="60" as="geometry" />
        </mxCell>
        <mxCell id="T1iM9zcVQcqPaShfsM0y-101" style="edgeStyle=orthogonalEdgeStyle;rounded=0;orthogonalLoop=1;jettySize=auto;html=1;exitX=0.5;exitY=1;exitDx=0;exitDy=0;entryX=0.5;entryY=0;entryDx=0;entryDy=0;" edge="1" parent="1" source="T1iM9zcVQcqPaShfsM0y-100" target="T1iM9zcVQcqPaShfsM0y-64">
          <mxGeometry relative="1" as="geometry" />
        </mxCell>
        <mxCell id="T1iM9zcVQcqPaShfsM0y-100" value="&lt;font face=&quot;Times New Roman&quot;&gt;&lt;span style=&quot;font-size: 15px&quot;&gt;T&lt;/span&gt;&lt;span style=&quot;font-size: 12.5px&quot;&gt;c&lt;/span&gt;&lt;span style=&quot;font-size: 15px&quot;&gt;&amp;nbsp;&amp;gt; 1170°С&lt;/span&gt;&lt;/font&gt;" style="rounded=0;whiteSpace=wrap;html=1;" vertex="1" parent="1">
          <mxGeometry x="380" y="355" width="90" height="30" as="geometry" />
        </mxCell>
        <mxCell id="T1iM9zcVQcqPaShfsM0y-117" style="edgeStyle=orthogonalEdgeStyle;rounded=0;orthogonalLoop=1;jettySize=auto;html=1;exitX=1;exitY=0.5;exitDx=0;exitDy=0;entryX=0;entryY=0.5;entryDx=0;entryDy=0;" edge="1" parent="1" source="T1iM9zcVQcqPaShfsM0y-108" target="T1iM9zcVQcqPaShfsM0y-116">
          <mxGeometry relative="1" as="geometry" />
        </mxCell>
        <mxCell id="T1iM9zcVQcqPaShfsM0y-108" value="прессовка листов ротора" style="rounded=0;whiteSpace=wrap;html=1;" vertex="1" parent="1">
          <mxGeometry x="544.5" y="544" width="85.5" height="60" as="geometry" />
        </mxCell>
        <mxCell id="T1iM9zcVQcqPaShfsM0y-114" value="прессовка листов статора и закрепление скобами" style="rounded=0;whiteSpace=wrap;html=1;" vertex="1" parent="1">
          <mxGeometry x="544.5" y="620" width="95.5" height="60" as="geometry" />
        </mxCell>
        <mxCell id="T1iM9zcVQcqPaShfsM0y-123" style="edgeStyle=orthogonalEdgeStyle;rounded=0;orthogonalLoop=1;jettySize=auto;html=1;exitX=1;exitY=0.5;exitDx=0;exitDy=0;entryX=0;entryY=0.5;entryDx=0;entryDy=0;" edge="1" parent="1" source="T1iM9zcVQcqPaShfsM0y-116" target="T1iM9zcVQcqPaShfsM0y-122">
          <mxGeometry relative="1" as="geometry" />
        </mxCell>
        <mxCell id="T1iM9zcVQcqPaShfsM0y-116" value="заливка обмотки с замыкающими кольцами и вентиляционными лопатками" style="rounded=0;whiteSpace=wrap;html=1;" vertex="1" parent="1">
          <mxGeometry x="720" y="544" width="165.5" height="60" as="geometry" />
        </mxCell>
        <mxCell id="T1iM9zcVQcqPaShfsM0y-119" style="edgeStyle=orthogonalEdgeStyle;rounded=0;orthogonalLoop=1;jettySize=auto;html=1;exitX=0.5;exitY=1;exitDx=0;exitDy=0;entryX=0;entryY=0.5;entryDx=0;entryDy=0;" edge="1" parent="1" source="T1iM9zcVQcqPaShfsM0y-118" target="T1iM9zcVQcqPaShfsM0y-116">
          <mxGeometry relative="1" as="geometry" />
        </mxCell>
        <mxCell id="T1iM9zcVQcqPaShfsM0y-118" value="алюминия" style="rounded=0;whiteSpace=wrap;html=1;" vertex="1" parent="1">
          <mxGeometry x="625" y="495" width="90" height="30" as="geometry" />
        </mxCell>
        <mxCell id="T1iM9zcVQcqPaShfsM0y-121" style="edgeStyle=orthogonalEdgeStyle;rounded=0;orthogonalLoop=1;jettySize=auto;html=1;exitX=0.5;exitY=1;exitDx=0;exitDy=0;entryX=0.5;entryY=0;entryDx=0;entryDy=0;" edge="1" parent="1" source="T1iM9zcVQcqPaShfsM0y-120" target="T1iM9zcVQcqPaShfsM0y-116">
          <mxGeometry relative="1" as="geometry" />
        </mxCell>
        <mxCell id="T1iM9zcVQcqPaShfsM0y-120" value="&lt;font face=&quot;Times New Roman&quot;&gt;&lt;span style=&quot;font-size: 15px&quot;&gt;T&lt;/span&gt;&lt;span style=&quot;font-size: 12.5px&quot;&gt;а&lt;/span&gt;&lt;span style=&quot;font-size: 15px&quot;&gt;&amp;nbsp;= 600°С&lt;br&gt;&lt;/span&gt;&lt;/font&gt;&lt;span style=&quot;font-family: &amp;#34;times new roman&amp;#34; ; font-size: 15px&quot;&gt;T&lt;/span&gt;&lt;span style=&quot;font-family: &amp;#34;times new roman&amp;#34; ; font-size: 12.5px&quot;&gt;сердечника&lt;/span&gt;&lt;span style=&quot;font-family: &amp;#34;times new roman&amp;#34; ; font-size: 15px&quot;&gt;&amp;nbsp;= 600°С&lt;/span&gt;&lt;font face=&quot;Times New Roman&quot;&gt;&lt;span style=&quot;font-size: 15px&quot;&gt;&lt;br&gt;&lt;/span&gt;&lt;/font&gt;" style="rounded=0;whiteSpace=wrap;html=1;" vertex="1" parent="1">
          <mxGeometry x="730" y="480" width="140" height="45" as="geometry" />
        </mxCell>
        <mxCell id="T1iM9zcVQcqPaShfsM0y-128" style="edgeStyle=orthogonalEdgeStyle;rounded=0;orthogonalLoop=1;jettySize=auto;html=1;exitX=0.5;exitY=1;exitDx=0;exitDy=0;entryX=0.5;entryY=0;entryDx=0;entryDy=0;" edge="1" parent="1" source="T1iM9zcVQcqPaShfsM0y-122" target="T1iM9zcVQcqPaShfsM0y-127">
          <mxGeometry relative="1" as="geometry" />
        </mxCell>
        <mxCell id="T1iM9zcVQcqPaShfsM0y-122" value="выпрессовка&amp;nbsp; оправки и запрессовка вала в сердечник" style="rounded=0;whiteSpace=wrap;html=1;" vertex="1" parent="1">
          <mxGeometry x="910" y="542" width="120" height="64" as="geometry" />
        </mxCell>
        <mxCell id="T1iM9zcVQcqPaShfsM0y-126" style="edgeStyle=orthogonalEdgeStyle;rounded=0;orthogonalLoop=1;jettySize=auto;html=1;exitX=1;exitY=0.5;exitDx=0;exitDy=0;entryX=0.5;entryY=0;entryDx=0;entryDy=0;" edge="1" parent="1" source="T1iM9zcVQcqPaShfsM0y-125" target="T1iM9zcVQcqPaShfsM0y-122">
          <mxGeometry relative="1" as="geometry" />
        </mxCell>
        <mxCell id="T1iM9zcVQcqPaShfsM0y-125" value="вал ротора" style="rounded=0;whiteSpace=wrap;html=1;" vertex="1" parent="1">
          <mxGeometry x="860" y="434" width="90" height="30" as="geometry" />
        </mxCell>
        <mxCell id="T1iM9zcVQcqPaShfsM0y-130" style="edgeStyle=orthogonalEdgeStyle;rounded=0;orthogonalLoop=1;jettySize=auto;html=1;exitX=0;exitY=0.5;exitDx=0;exitDy=0;entryX=1;entryY=0.5;entryDx=0;entryDy=0;" edge="1" parent="1" source="T1iM9zcVQcqPaShfsM0y-127" target="T1iM9zcVQcqPaShfsM0y-129">
          <mxGeometry relative="1" as="geometry" />
        </mxCell>
        <mxCell id="T1iM9zcVQcqPaShfsM0y-127" value="балансировка ротора" style="rounded=0;whiteSpace=wrap;html=1;" vertex="1" parent="1">
          <mxGeometry x="1014.5" y="680" width="120" height="40" as="geometry" />
        </mxCell>
        <mxCell id="T1iM9zcVQcqPaShfsM0y-129" value="напрессовка подшипников" style="rounded=0;whiteSpace=wrap;html=1;" vertex="1" parent="1">
          <mxGeometry x="870" y="680" width="120" height="40" as="geometry" />
        </mxCell>
      </root>
    </mxGraphModel>
  </diagram>
</mxfile>
